<svg width="180" height="33" viewBox="0 0 180 33" fill="none" xmlns="http://www.w3.org/2000/svg">
<path d="M4.375 11H1.23295V0.818182H4.5142C5.50189 0.818182 6.34706 1.02202 7.04972 1.42969C7.75237 1.83404 8.29096 2.41572 8.66548 3.17472C9.04001 3.9304 9.22727 4.83523 9.22727 5.8892C9.22727 6.94981 9.03835 7.86293 8.66051 8.62855C8.28267 9.39086 7.73248 9.97751 7.00994 10.3885C6.28741 10.7962 5.40909 11 4.375 11ZM2.46591 9.90625H4.29545C5.13731 9.90625 5.83499 9.74384 6.38849 9.41903C6.942 9.09422 7.35464 8.63187 7.62642 8.03196C7.8982 7.43205 8.03409 6.7178 8.03409 5.8892C8.03409 5.06723 7.89986 4.35961 7.63139 3.76633C7.36293 3.16974 6.96188 2.71236 6.42827 2.39418C5.89465 2.07268 5.23011 1.91193 4.43466 1.91193H2.46591V9.90625ZM14.2386 11.1591C13.5492 11.1591 12.9444 10.995 12.424 10.6669C11.907 10.3388 11.5026 9.87973 11.2109 9.28977C10.9226 8.69981 10.7784 8.01042 10.7784 7.22159C10.7784 6.42614 10.9226 5.73177 11.2109 5.13849C11.5026 4.54522 11.907 4.08452 12.424 3.75639C12.9444 3.42827 13.5492 3.2642 14.2386 3.2642C14.928 3.2642 15.5313 3.42827 16.0483 3.75639C16.5687 4.08452 16.973 4.54522 17.2614 5.13849C17.553 5.73177 17.6989 6.42614 17.6989 7.22159C17.6989 8.01042 17.553 8.69981 17.2614 9.28977C16.973 9.87973 16.5687 10.3388 16.0483 10.6669C15.5313 10.995 14.928 11.1591 14.2386 11.1591ZM14.2386 10.1051C14.7623 10.1051 15.1932 9.97088 15.5312 9.70241C15.8693 9.43395 16.1196 9.08097 16.282 8.64347C16.4444 8.20597 16.5256 7.73201 16.5256 7.22159C16.5256 6.71117 16.4444 6.23556 16.282 5.79474C16.1196 5.35393 15.8693 4.99763 15.5312 4.72585C15.1932 4.45407 14.7623 4.31818 14.2386 4.31818C13.715 4.31818 13.2841 4.45407 12.946 4.72585C12.608 4.99763 12.3577 5.35393 12.1953 5.79474C12.0329 6.23556 11.9517 6.71117 11.9517 7.22159C11.9517 7.73201 12.0329 8.20597 12.1953 8.64347C12.3577 9.08097 12.608 9.43395 12.946 9.70241C13.2841 9.97088 13.715 10.1051 14.2386 10.1051ZM20.6632 6.40625V11H19.4899V3.36364H20.6234V4.55682H20.7228C20.9018 4.16903 21.1736 3.85748 21.5382 3.62216C21.9028 3.38352 22.3734 3.2642 22.9501 3.2642C23.4672 3.2642 23.9196 3.37027 24.3074 3.58239C24.6951 3.79119 24.9967 4.10938 25.2122 4.53693C25.4276 4.96117 25.5353 5.49811 25.5353 6.14773V11H24.362V6.22727C24.362 5.62737 24.2063 5.16004 23.8947 4.82528C23.5832 4.48722 23.1556 4.31818 22.612 4.31818C22.2375 4.31818 21.9028 4.39938 21.6078 4.56179C21.3161 4.72419 21.0858 4.96117 20.9167 5.27273C20.7477 5.58428 20.6632 5.96212 20.6632 6.40625ZM30.881 11.1591C30.1452 11.1591 29.5105 10.9967 28.9769 10.6719C28.4466 10.3438 28.0373 9.88636 27.7489 9.29972C27.4639 8.70975 27.3214 8.02367 27.3214 7.24148C27.3214 6.45928 27.4639 5.76989 27.7489 5.1733C28.0373 4.57339 28.4383 4.10606 28.9521 3.77131C29.4691 3.43324 30.0723 3.2642 30.7617 3.2642C31.1594 3.2642 31.5522 3.33049 31.94 3.46307C32.3278 3.59564 32.6808 3.81108 32.9989 4.10938C33.3171 4.40436 33.5707 4.79545 33.7596 5.28267C33.9485 5.76989 34.043 6.36979 34.043 7.08239V7.57955H28.1566V6.56534H32.8498C32.8498 6.13447 32.7636 5.75 32.5913 5.41193C32.4222 5.07386 32.1803 4.80705 31.8654 4.61151C31.5539 4.41596 31.186 4.31818 30.7617 4.31818C30.2944 4.31818 29.89 4.43419 29.5487 4.66619C29.2106 4.89489 28.9504 5.19318 28.7681 5.56108C28.5858 5.92898 28.4947 6.32339 28.4947 6.74432V7.42045C28.4947 7.99716 28.5941 8.48603 28.793 8.88707C28.9951 9.2848 29.2752 9.58807 29.6332 9.79688C29.9911 10.0024 30.4071 10.1051 30.881 10.1051C31.1893 10.1051 31.4677 10.062 31.7163 9.97585C31.9682 9.88636 32.1853 9.75379 32.3675 9.57812C32.5498 9.39915 32.6907 9.17708 32.7901 8.91193L33.9237 9.23011C33.8043 9.61458 33.6038 9.95265 33.3221 10.2443C33.0404 10.5327 32.6924 10.758 32.2781 10.9205C31.8638 11.0795 31.3981 11.1591 30.881 11.1591ZM38.93 11.1591C38.2141 11.1591 37.5977 10.9901 37.0806 10.652C36.5636 10.3139 36.1658 9.84825 35.8874 9.25497C35.609 8.66169 35.4698 7.9839 35.4698 7.22159C35.4698 6.44602 35.6123 5.7616 35.8974 5.16832C36.1857 4.57173 36.5868 4.10606 37.1005 3.77131C37.6175 3.43324 38.2208 3.2642 38.9102 3.2642C39.4471 3.2642 39.931 3.36364 40.3619 3.5625C40.7927 3.76136 41.1457 4.03977 41.4208 4.39773C41.6959 4.75568 41.8666 5.1733 41.9329 5.65057H40.7596C40.6701 5.30256 40.4712 4.99432 40.163 4.72585C39.8581 4.45407 39.4471 4.31818 38.93 4.31818C38.4727 4.31818 38.0716 4.4375 37.7269 4.67614C37.3855 4.91146 37.1187 5.24455 36.9265 5.67543C36.7376 6.10298 36.6431 6.60511 36.6431 7.18182C36.6431 7.77178 36.7359 8.28551 36.9215 8.72301C37.1104 9.16051 37.3756 9.50024 37.717 9.74219C38.0617 9.98414 38.466 10.1051 38.93 10.1051C39.235 10.1051 39.5117 10.0521 39.7603 9.94602C40.0089 9.83996 40.2193 9.6875 40.3917 9.48864C40.564 9.28977 40.6867 9.05114 40.7596 8.77273H41.9329C41.8666 9.22348 41.7025 9.6295 41.4407 9.99077C41.1822 10.3487 40.8391 10.6338 40.4116 10.8459C39.9873 11.0547 39.4935 11.1591 38.93 11.1591ZM47.5856 11V3.36364H48.7191V4.55682H48.8185C48.9776 4.14915 49.2345 3.83262 49.5891 3.60724C49.9438 3.37855 50.3697 3.2642 50.8668 3.2642C51.3706 3.2642 51.7899 3.37855 52.1246 3.60724C52.4627 3.83262 52.7262 4.14915 52.9151 4.55682H52.9947C53.1902 4.16241 53.4835 3.84919 53.8746 3.61719C54.2657 3.38187 54.7347 3.2642 55.2816 3.2642C55.9644 3.2642 56.5228 3.47798 56.957 3.90554C57.3912 4.32978 57.6083 4.991 57.6083 5.8892V11H56.435V5.8892C56.435 5.32576 56.2809 4.92306 55.9727 4.68111C55.6644 4.43916 55.3015 4.31818 54.8839 4.31818C54.3469 4.31818 53.931 4.48059 53.636 4.8054C53.341 5.12689 53.1935 5.53456 53.1935 6.02841V11H52.0004V5.76989C52.0004 5.3357 51.8595 4.98603 51.5778 4.72088C51.296 4.45241 50.9331 4.31818 50.489 4.31818C50.1841 4.31818 49.899 4.39938 49.6339 4.56179C49.372 4.72419 49.1599 4.94957 48.9975 5.23793C48.8384 5.52296 48.7589 5.85275 48.7589 6.22727V11H47.5856ZM62.0007 11.179C61.5168 11.179 61.0777 11.0878 60.6832 10.9055C60.2888 10.7199 59.9756 10.4531 59.7436 10.1051C59.5116 9.75379 59.3956 9.32955 59.3956 8.83239C59.3956 8.39489 59.4818 8.04025 59.6541 7.76847C59.8265 7.49337 60.0568 7.27794 60.3452 7.12216C60.6335 6.96638 60.9517 6.85038 61.2997 6.77415C61.651 6.6946 62.004 6.63163 62.3587 6.58523C62.8227 6.52557 63.1989 6.48082 63.4872 6.45099C63.7789 6.41785 63.991 6.36316 64.1236 6.28693C64.2595 6.2107 64.3274 6.07812 64.3274 5.8892V5.84943C64.3274 5.3589 64.1932 4.97775 63.9247 4.70597C63.6596 4.43419 63.2569 4.2983 62.7166 4.2983C62.1565 4.2983 61.7173 4.42093 61.3991 4.66619C61.081 4.91146 60.8572 5.1733 60.728 5.4517L59.6143 5.05398C59.8132 4.58996 60.0784 4.22869 60.4098 3.97017C60.7446 3.70833 61.1091 3.52604 61.5036 3.4233C61.9013 3.31723 62.2924 3.2642 62.6768 3.2642C62.9221 3.2642 63.2038 3.29403 63.522 3.35369C63.8435 3.41004 64.1534 3.5277 64.4517 3.70668C64.7533 3.88565 65.0036 4.15578 65.2024 4.51705C65.4013 4.87831 65.5007 5.36222 65.5007 5.96875V11H64.3274V9.96591H64.2678C64.1882 10.1316 64.0556 10.3089 63.87 10.4979C63.6844 10.6868 63.4375 10.8475 63.1293 10.9801C62.821 11.1127 62.4448 11.179 62.0007 11.179ZM62.1797 10.125C62.6437 10.125 63.0348 10.0339 63.353 9.85156C63.6745 9.66927 63.9164 9.43395 64.0788 9.1456C64.2446 8.85724 64.3274 8.55398 64.3274 8.2358V7.16193C64.2777 7.22159 64.1683 7.27628 63.9993 7.32599C63.8336 7.3724 63.6413 7.41383 63.4226 7.45028C63.2071 7.48343 62.9967 7.51326 62.7912 7.53977C62.589 7.56297 62.425 7.58286 62.299 7.59943C61.9941 7.6392 61.709 7.70384 61.4439 7.79332C61.1821 7.8795 60.9699 8.01042 60.8075 8.18608C60.6484 8.35843 60.5689 8.59375 60.5689 8.89205C60.5689 9.29972 60.7197 9.60795 61.0213 9.81676C61.3262 10.0223 61.7124 10.125 62.1797 10.125ZM70.9632 3.36364V4.35795H67.0059V3.36364H70.9632ZM68.1593 1.53409H69.3326V8.8125C69.3326 9.14394 69.3806 9.39252 69.4767 9.55824C69.5762 9.72064 69.7021 9.83002 69.8546 9.88636C70.0104 9.93939 70.1744 9.96591 70.3468 9.96591C70.476 9.96591 70.5821 9.95928 70.665 9.94602C70.7478 9.92945 70.8141 9.91619 70.8638 9.90625L71.1025 10.9602C71.0229 10.9901 70.9119 11.0199 70.7694 11.0497C70.6268 11.0829 70.4462 11.0994 70.2275 11.0994C69.896 11.0994 69.5712 11.0282 69.253 10.8857C68.9382 10.7431 68.6763 10.526 68.4675 10.2344C68.262 9.94271 68.1593 9.57481 68.1593 9.13068V1.53409ZM76.0492 3.36364V4.35795H72.0918V3.36364H76.0492ZM73.2452 1.53409H74.4185V8.8125C74.4185 9.14394 74.4666 9.39252 74.5627 9.55824C74.6621 9.72064 74.7881 9.83002 74.9405 9.88636C75.0963 9.93939 75.2604 9.96591 75.4327 9.96591C75.562 9.96591 75.668 9.95928 75.7509 9.94602C75.8337 9.92945 75.9 9.91619 75.9498 9.90625L76.1884 10.9602C76.1088 10.9901 75.9978 11.0199 75.8553 11.0497C75.7128 11.0829 75.5321 11.0994 75.3134 11.0994C74.9819 11.0994 74.6571 11.0282 74.339 10.8857C74.0241 10.7431 73.7623 10.526 73.5534 10.2344C73.348 9.94271 73.2452 9.57481 73.2452 9.13068V1.53409ZM77.8141 11V3.36364H78.9874V11H77.8141ZM78.4107 2.09091C78.182 2.09091 77.9848 2.01302 77.8191 1.85724C77.6567 1.70147 77.5755 1.5142 77.5755 1.29545C77.5755 1.0767 77.6567 0.889441 77.8191 0.733664C77.9848 0.577888 78.182 0.5 78.4107 0.5C78.6394 0.5 78.8349 0.577888 78.9973 0.733664C79.1631 0.889441 79.2459 1.0767 79.2459 1.29545C79.2459 1.5142 79.1631 1.70147 78.9973 1.85724C78.8349 2.01302 78.6394 2.09091 78.4107 2.09091ZM86.5455 5.07386L85.4915 5.37216C85.4252 5.1965 85.3274 5.0258 85.1982 4.86009C85.0722 4.69105 84.8999 4.55185 84.6811 4.44247C84.4624 4.3331 84.1823 4.27841 83.8409 4.27841C83.3736 4.27841 82.9841 4.38613 82.6726 4.60156C82.3643 4.81368 82.2102 5.08381 82.2102 5.41193C82.2102 5.7036 82.3163 5.93395 82.5284 6.10298C82.7405 6.27202 83.072 6.41288 83.5227 6.52557L84.6562 6.80398C85.339 6.9697 85.8478 7.22325 86.1825 7.56463C86.5173 7.9027 86.6847 8.33854 86.6847 8.87216C86.6847 9.30966 86.5587 9.70076 86.3068 10.0455C86.0582 10.3902 85.7102 10.6619 85.2628 10.8608C84.8153 11.0597 84.295 11.1591 83.7017 11.1591C82.9228 11.1591 82.2782 10.9901 81.7678 10.652C81.2573 10.3139 80.9342 9.82008 80.7983 9.17045L81.9119 8.89205C82.018 9.30303 82.2185 9.61127 82.5135 9.81676C82.8118 10.0223 83.2012 10.125 83.6818 10.125C84.2287 10.125 84.6629 10.009 84.9844 9.77699C85.3092 9.54167 85.4716 9.25994 85.4716 8.93182C85.4716 8.66667 85.3788 8.4446 85.1932 8.26562C85.0076 8.08333 84.7225 7.94744 84.3381 7.85795L83.0653 7.55966C82.366 7.39394 81.8523 7.13707 81.5241 6.78906C81.1993 6.43774 81.0369 5.99858 81.0369 5.47159C81.0369 5.04072 81.1579 4.65956 81.3999 4.32812C81.6451 3.99669 81.9782 3.73651 82.3991 3.54758C82.8234 3.35866 83.304 3.2642 83.8409 3.2642C84.5966 3.2642 85.1899 3.42992 85.6207 3.76136C86.0549 4.0928 86.3632 4.5303 86.5455 5.07386ZM92.3883 13.8636V3.36364H93.5218V4.5767H93.661C93.7472 4.44413 93.8665 4.27509 94.019 4.0696C94.1748 3.8608 94.3968 3.67519 94.6852 3.51278C94.9769 3.34706 95.3713 3.2642 95.8684 3.2642C96.5114 3.2642 97.0782 3.42495 97.5687 3.74645C98.0592 4.06794 98.4421 4.52367 98.7172 5.11364C98.9922 5.7036 99.1298 6.39962 99.1298 7.2017C99.1298 8.01042 98.9922 8.71141 98.7172 9.30469C98.4421 9.89465 98.0609 10.352 97.5737 10.6768C97.0865 10.9983 96.5247 11.1591 95.8883 11.1591C95.3978 11.1591 95.005 11.0779 94.71 10.9155C94.4151 10.7498 94.188 10.5625 94.0289 10.3537C93.8699 10.1416 93.7472 9.96591 93.661 9.8267H93.5616V13.8636H92.3883ZM93.5417 7.18182C93.5417 7.75852 93.6262 8.26728 93.7953 8.7081C93.9643 9.1456 94.2112 9.48864 94.536 9.73722C94.8609 9.98248 95.2586 10.1051 95.7292 10.1051C96.2198 10.1051 96.6291 9.97585 96.9572 9.71733C97.2886 9.45549 97.5372 9.10417 97.7029 8.66335C97.872 8.21922 97.9565 7.72538 97.9565 7.18182C97.9565 6.64489 97.8736 6.16098 97.7079 5.73011C97.5455 5.29593 97.2986 4.95289 96.9672 4.70099C96.639 4.44579 96.2264 4.31818 95.7292 4.31818C95.252 4.31818 94.8509 4.43916 94.5261 4.68111C94.2013 4.91974 93.956 5.2545 93.7903 5.68537C93.6246 6.11293 93.5417 6.61174 93.5417 7.18182ZM104.022 11.1591C103.332 11.1591 102.728 10.995 102.207 10.6669C101.69 10.3388 101.286 9.87973 100.994 9.28977C100.706 8.69981 100.562 8.01042 100.562 7.22159C100.562 6.42614 100.706 5.73177 100.994 5.13849C101.286 4.54522 101.69 4.08452 102.207 3.75639C102.728 3.42827 103.332 3.2642 104.022 3.2642C104.711 3.2642 105.314 3.42827 105.831 3.75639C106.352 4.08452 106.756 4.54522 107.045 5.13849C107.336 5.73177 107.482 6.42614 107.482 7.22159C107.482 8.01042 107.336 8.69981 107.045 9.28977C106.756 9.87973 106.352 10.3388 105.831 10.6669C105.314 10.995 104.711 11.1591 104.022 11.1591ZM104.022 10.1051C104.546 10.1051 104.976 9.97088 105.314 9.70241C105.653 9.43395 105.903 9.08097 106.065 8.64347C106.228 8.20597 106.309 7.73201 106.309 7.22159C106.309 6.71117 106.228 6.23556 106.065 5.79474C105.903 5.35393 105.653 4.99763 105.314 4.72585C104.976 4.45407 104.546 4.31818 104.022 4.31818C103.498 4.31818 103.067 4.45407 102.729 4.72585C102.391 4.99763 102.141 5.35393 101.979 5.79474C101.816 6.23556 101.735 6.71117 101.735 7.22159C101.735 7.73201 101.816 8.20597 101.979 8.64347C102.141 9.08097 102.391 9.43395 102.729 9.70241C103.067 9.97088 103.498 10.1051 104.022 10.1051ZM109.273 11V3.36364H110.407V4.51705H110.486C110.625 4.1392 110.877 3.83262 111.242 3.5973C111.606 3.36198 112.017 3.24432 112.475 3.24432C112.561 3.24432 112.669 3.24597 112.798 3.24929C112.927 3.2526 113.025 3.25758 113.091 3.2642V4.45739C113.051 4.44744 112.96 4.43253 112.818 4.41264C112.679 4.38944 112.531 4.37784 112.375 4.37784C112.004 4.37784 111.673 4.45573 111.381 4.61151C111.093 4.76397 110.864 4.97609 110.695 5.24787C110.529 5.51634 110.446 5.82292 110.446 6.16761V11H109.273ZM118.282 3.36364V4.35795H114.324V3.36364H118.282ZM115.478 1.53409H116.651V8.8125C116.651 9.14394 116.699 9.39252 116.795 9.55824C116.895 9.72064 117.02 9.83002 117.173 9.88636C117.329 9.93939 117.493 9.96591 117.665 9.96591C117.794 9.96591 117.9 9.95928 117.983 9.94602C118.066 9.92945 118.132 9.91619 118.182 9.90625L118.421 10.9602C118.341 10.9901 118.23 11.0199 118.088 11.0497C117.945 11.0829 117.765 11.0994 117.546 11.0994C117.214 11.0994 116.89 11.0282 116.571 10.8857C116.257 10.7431 115.995 10.526 115.786 10.2344C115.58 9.94271 115.478 9.57481 115.478 9.13068V1.53409ZM122.294 11.179C121.81 11.179 121.371 11.0878 120.976 10.9055C120.582 10.7199 120.269 10.4531 120.037 10.1051C119.805 9.75379 119.689 9.32955 119.689 8.83239C119.689 8.39489 119.775 8.04025 119.947 7.76847C120.119 7.49337 120.35 7.27794 120.638 7.12216C120.926 6.96638 121.245 6.85038 121.593 6.77415C121.944 6.6946 122.297 6.63163 122.652 6.58523C123.116 6.52557 123.492 6.48082 123.78 6.45099C124.072 6.41785 124.284 6.36316 124.417 6.28693C124.552 6.2107 124.62 6.07812 124.62 5.8892V5.84943C124.62 5.3589 124.486 4.97775 124.218 4.70597C123.953 4.43419 123.55 4.2983 123.01 4.2983C122.449 4.2983 122.01 4.42093 121.692 4.66619C121.374 4.91146 121.15 5.1733 121.021 5.4517L119.907 5.05398C120.106 4.58996 120.371 4.22869 120.703 3.97017C121.038 3.70833 121.402 3.52604 121.797 3.4233C122.194 3.31723 122.585 3.2642 122.97 3.2642C123.215 3.2642 123.497 3.29403 123.815 3.35369C124.136 3.41004 124.446 3.5277 124.745 3.70668C125.046 3.88565 125.297 4.15578 125.495 4.51705C125.694 4.87831 125.794 5.36222 125.794 5.96875V11H124.62V9.96591H124.561C124.481 10.1316 124.349 10.3089 124.163 10.4979C123.977 10.6868 123.73 10.8475 123.422 10.9801C123.114 11.1127 122.738 11.179 122.294 11.179ZM122.473 10.125C122.937 10.125 123.328 10.0339 123.646 9.85156C123.967 9.66927 124.209 9.43395 124.372 9.1456C124.538 8.85724 124.62 8.55398 124.62 8.2358V7.16193C124.571 7.22159 124.461 7.27628 124.292 7.32599C124.127 7.3724 123.934 7.41383 123.716 7.45028C123.5 7.48343 123.29 7.51326 123.084 7.53977C122.882 7.56297 122.718 7.58286 122.592 7.59943C122.287 7.6392 122.002 7.70384 121.737 7.79332C121.475 7.8795 121.263 8.01042 121.1 8.18608C120.941 8.35843 120.862 8.59375 120.862 8.89205C120.862 9.29972 121.013 9.60795 121.314 9.81676C121.619 10.0223 122.005 10.125 122.473 10.125ZM135.074 11.1591C134.339 11.1591 133.704 10.9967 133.17 10.6719C132.64 10.3438 132.231 9.88636 131.942 9.29972C131.657 8.70975 131.515 8.02367 131.515 7.24148C131.515 6.45928 131.657 5.76989 131.942 5.1733C132.231 4.57339 132.632 4.10606 133.145 3.77131C133.662 3.43324 134.266 3.2642 134.955 3.2642C135.353 3.2642 135.746 3.33049 136.133 3.46307C136.521 3.59564 136.874 3.81108 137.192 4.10938C137.51 4.40436 137.764 4.79545 137.953 5.28267C138.142 5.76989 138.236 6.36979 138.236 7.08239V7.57955H132.35V6.56534H137.043C137.043 6.13447 136.957 5.75 136.785 5.41193C136.616 5.07386 136.374 4.80705 136.059 4.61151C135.747 4.41596 135.379 4.31818 134.955 4.31818C134.488 4.31818 134.083 4.43419 133.742 4.66619C133.404 4.89489 133.144 5.19318 132.961 5.56108C132.779 5.92898 132.688 6.32339 132.688 6.74432V7.42045C132.688 7.99716 132.787 8.48603 132.986 8.88707C133.189 9.2848 133.469 9.58807 133.827 9.79688C134.184 10.0024 134.6 10.1051 135.074 10.1051C135.383 10.1051 135.661 10.062 135.91 9.97585C136.162 9.88636 136.379 9.75379 136.561 9.57812C136.743 9.39915 136.884 9.17708 136.983 8.91193L138.117 9.23011C137.998 9.61458 137.797 9.95265 137.515 10.2443C137.234 10.5327 136.886 10.758 136.471 10.9205C136.057 11.0795 135.591 11.1591 135.074 11.1591ZM140.021 11V3.36364H141.155V4.51705H141.234C141.373 4.1392 141.625 3.83262 141.99 3.5973C142.354 3.36198 142.765 3.24432 143.223 3.24432C143.309 3.24432 143.417 3.24597 143.546 3.24929C143.675 3.2526 143.773 3.25758 143.839 3.2642V4.45739C143.8 4.44744 143.708 4.43253 143.566 4.41264C143.427 4.38944 143.279 4.37784 143.123 4.37784C142.752 4.37784 142.421 4.45573 142.129 4.61151C141.841 4.76397 141.612 4.97609 141.443 5.24787C141.277 5.51634 141.194 5.82292 141.194 6.16761V11H140.021ZM148.1 11.1591C147.411 11.1591 146.806 10.995 146.285 10.6669C145.768 10.3388 145.364 9.87973 145.072 9.28977C144.784 8.69981 144.64 8.01042 144.64 7.22159C144.64 6.42614 144.784 5.73177 145.072 5.13849C145.364 4.54522 145.768 4.08452 146.285 3.75639C146.806 3.42827 147.411 3.2642 148.1 3.2642C148.789 3.2642 149.393 3.42827 149.91 3.75639C150.43 4.08452 150.834 4.54522 151.123 5.13849C151.414 5.73177 151.56 6.42614 151.56 7.22159C151.56 8.01042 151.414 8.69981 151.123 9.28977C150.834 9.87973 150.43 10.3388 149.91 10.6669C149.393 10.995 148.789 11.1591 148.1 11.1591ZM148.1 10.1051C148.624 10.1051 149.055 9.97088 149.393 9.70241C149.731 9.43395 149.981 9.08097 150.143 8.64347C150.306 8.20597 150.387 7.73201 150.387 7.22159C150.387 6.71117 150.306 6.23556 150.143 5.79474C149.981 5.35393 149.731 4.99763 149.393 4.72585C149.055 4.45407 148.624 4.31818 148.1 4.31818C147.576 4.31818 147.145 4.45407 146.807 4.72585C146.469 4.99763 146.219 5.35393 146.057 5.79474C145.894 6.23556 145.813 6.71117 145.813 7.22159C145.813 7.73201 145.894 8.20597 146.057 8.64347C146.219 9.08097 146.469 9.43395 146.807 9.70241C147.145 9.97088 147.576 10.1051 148.1 10.1051ZM158.76 5.07386L157.706 5.37216C157.64 5.1965 157.542 5.0258 157.413 4.86009C157.287 4.69105 157.115 4.55185 156.896 4.44247C156.677 4.3331 156.397 4.27841 156.056 4.27841C155.588 4.27841 155.199 4.38613 154.887 4.60156C154.579 4.81368 154.425 5.08381 154.425 5.41193C154.425 5.7036 154.531 5.93395 154.743 6.10298C154.955 6.27202 155.287 6.41288 155.738 6.52557L156.871 6.80398C157.554 6.9697 158.063 7.22325 158.397 7.56463C158.732 7.9027 158.9 8.33854 158.9 8.87216C158.9 9.30966 158.774 9.70076 158.522 10.0455C158.273 10.3902 157.925 10.6619 157.478 10.8608C157.03 11.0597 156.51 11.1591 155.917 11.1591C155.138 11.1591 154.493 10.9901 153.983 10.652C153.472 10.3139 153.149 9.82008 153.013 9.17045L154.127 8.89205C154.233 9.30303 154.433 9.61127 154.728 9.81676C155.027 10.0223 155.416 10.125 155.897 10.125C156.444 10.125 156.878 10.009 157.199 9.77699C157.524 9.54167 157.686 9.25994 157.686 8.93182C157.686 8.66667 157.594 8.4446 157.408 8.26562C157.222 8.08333 156.937 7.94744 156.553 7.85795L155.28 7.55966C154.581 7.39394 154.067 7.13707 153.739 6.78906C153.414 6.43774 153.252 5.99858 153.252 5.47159C153.252 5.04072 153.373 4.65956 153.615 4.32812C153.86 3.99669 154.193 3.73651 154.614 3.54758C155.038 3.35866 155.519 3.2642 156.056 3.2642C156.811 3.2642 157.405 3.42992 157.836 3.76136C158.27 4.0928 158.578 4.5303 158.76 5.07386ZM162.416 9.60795L162.336 10.1449C162.28 10.5227 162.194 10.9271 162.078 11.358C161.965 11.7888 161.847 12.1948 161.725 12.576C161.602 12.9571 161.501 13.2604 161.421 13.4858H160.526C160.57 13.2737 160.626 12.9936 160.695 12.6456C160.765 12.2976 160.835 11.9081 160.904 11.4773C160.977 11.0497 161.037 10.6122 161.083 10.1648L161.143 9.60795H162.416ZM165.763 0.818182V11H164.589V0.818182H165.763ZM171.113 11.1591C170.378 11.1591 169.743 10.9967 169.209 10.6719C168.679 10.3438 168.27 9.88636 167.981 9.29972C167.696 8.70975 167.554 8.02367 167.554 7.24148C167.554 6.45928 167.696 5.76989 167.981 5.1733C168.27 4.57339 168.671 4.10606 169.184 3.77131C169.702 3.43324 170.305 3.2642 170.994 3.2642C171.392 3.2642 171.785 3.33049 172.172 3.46307C172.56 3.59564 172.913 3.81108 173.231 4.10938C173.55 4.40436 173.803 4.79545 173.992 5.28267C174.181 5.76989 174.275 6.36979 174.275 7.08239V7.57955H168.389V6.56534H173.082C173.082 6.13447 172.996 5.75 172.824 5.41193C172.655 5.07386 172.413 4.80705 172.098 4.61151C171.786 4.41596 171.418 4.31818 170.994 4.31818C170.527 4.31818 170.122 4.43419 169.781 4.66619C169.443 4.89489 169.183 5.19318 169.001 5.56108C168.818 5.92898 168.727 6.32339 168.727 6.74432V7.42045C168.727 7.99716 168.827 8.48603 169.025 8.88707C169.228 9.2848 169.508 9.58807 169.866 9.79688C170.224 10.0024 170.64 10.1051 171.113 10.1051C171.422 10.1051 171.7 10.062 171.949 9.97585C172.201 9.88636 172.418 9.75379 172.6 9.57812C172.782 9.39915 172.923 9.17708 173.023 8.91193L174.156 9.23011C174.037 9.61458 173.836 9.95265 173.555 10.2443C173.273 10.5327 172.925 10.758 172.51 10.9205C172.096 11.0795 171.631 11.1591 171.113 11.1591ZM179.381 3.36364V4.35795H175.424V3.36364H179.381ZM176.577 1.53409H177.751V8.8125C177.751 9.14394 177.799 9.39252 177.895 9.55824C177.994 9.72064 178.12 9.83002 178.273 9.88636C178.428 9.93939 178.592 9.96591 178.765 9.96591C178.894 9.96591 179 9.95928 179.083 9.94602C179.166 9.92945 179.232 9.91619 179.282 9.90625L179.52 10.9602C179.441 10.9901 179.33 11.0199 179.187 11.0497C179.045 11.0829 178.864 11.0994 178.645 11.0994C178.314 11.0994 177.989 11.0282 177.671 10.8857C177.356 10.7431 177.094 10.526 176.885 10.2344C176.68 9.94271 176.577 9.57481 176.577 9.13068V1.53409ZM3.32102 30.179C2.83712 30.179 2.39796 30.0878 2.00355 29.9055C1.60914 29.7199 1.29593 29.4531 1.06392 29.1051C0.831913 28.7538 0.715909 28.3295 0.715909 27.8324C0.715909 27.3949 0.802083 27.0402 0.974432 26.7685C1.14678 26.4934 1.37713 26.2779 1.66548 26.1222C1.95384 25.9664 2.27202 25.8504 2.62003 25.7741C2.97135 25.6946 3.32434 25.6316 3.67898 25.5852C4.14299 25.5256 4.51918 25.4808 4.80753 25.451C5.0992 25.4179 5.31132 25.3632 5.44389 25.2869C5.57978 25.2107 5.64773 25.0781 5.64773 24.8892V24.8494C5.64773 24.3589 5.51349 23.9777 5.24503 23.706C4.97988 23.4342 4.57718 23.2983 4.03693 23.2983C3.4768 23.2983 3.03764 23.4209 2.71946 23.6662C2.40128 23.9115 2.17756 24.1733 2.0483 24.4517L0.934659 24.054C1.13352 23.59 1.39867 23.2287 1.73011 22.9702C2.06487 22.7083 2.42945 22.526 2.82386 22.4233C3.22159 22.3172 3.61269 22.2642 3.99716 22.2642C4.24242 22.2642 4.52415 22.294 4.84233 22.3537C5.16383 22.41 5.47372 22.5277 5.77202 22.7067C6.07363 22.8857 6.32386 23.1558 6.52273 23.517C6.72159 23.8783 6.82102 24.3622 6.82102 24.9688V30H5.64773V28.9659H5.58807C5.50852 29.1316 5.37595 29.3089 5.19034 29.4979C5.00474 29.6868 4.75781 29.8475 4.44957 29.9801C4.14134 30.1127 3.76515 30.179 3.32102 30.179ZM3.5 29.125C3.96402 29.125 4.35511 29.0339 4.6733 28.8516C4.99479 28.6693 5.23674 28.4339 5.39915 28.1456C5.56487 27.8572 5.64773 27.554 5.64773 27.2358V26.1619C5.59801 26.2216 5.48864 26.2763 5.3196 26.326C5.15388 26.3724 4.96165 26.4138 4.7429 26.4503C4.52746 26.4834 4.317 26.5133 4.11151 26.5398C3.90933 26.563 3.74527 26.5829 3.61932 26.5994C3.31439 26.6392 3.02936 26.7038 2.7642 26.7933C2.50237 26.8795 2.29025 27.0104 2.12784 27.1861C1.96875 27.3584 1.8892 27.5937 1.8892 27.892C1.8892 28.2997 2.04001 28.608 2.34162 28.8168C2.64654 29.0223 3.03267 29.125 3.5 29.125ZM10.1358 19.8182V30H8.96254V19.8182H10.1358ZM12.2848 30V22.3636H13.4581V30H12.2848ZM12.8814 21.0909C12.6527 21.0909 12.4555 21.013 12.2898 20.8572C12.1274 20.7015 12.0462 20.5142 12.0462 20.2955C12.0462 20.0767 12.1274 19.8894 12.2898 19.7337C12.4555 19.5779 12.6527 19.5 12.8814 19.5C13.1101 19.5 13.3056 19.5779 13.468 19.7337C13.6338 19.8894 13.7166 20.0767 13.7166 20.2955C13.7166 20.5142 13.6338 20.7015 13.468 20.8572C13.3056 21.013 13.1101 21.0909 12.8814 21.0909ZM20.8173 32.8636V28.8267H20.7179C20.6317 28.9659 20.5091 29.1416 20.35 29.3537C20.1909 29.5625 19.9638 29.7498 19.6689 29.9155C19.3739 30.0779 18.9811 30.1591 18.4906 30.1591C17.8542 30.1591 17.2924 29.9983 16.8052 29.6768C16.318 29.352 15.9368 28.8946 15.6618 28.3047C15.3867 27.7114 15.2491 27.0104 15.2491 26.2017C15.2491 25.3996 15.3867 24.7036 15.6618 24.1136C15.9368 23.5237 16.3197 23.0679 16.8102 22.7464C17.3007 22.425 17.8675 22.2642 18.5105 22.2642C19.0076 22.2642 19.4004 22.3471 19.6887 22.5128C19.9804 22.6752 20.2025 22.8608 20.3549 23.0696C20.5107 23.2751 20.6317 23.4441 20.7179 23.5767H20.8571V22.3636H21.9906V32.8636H20.8173ZM18.6497 29.1051C19.1203 29.1051 19.5181 28.9825 19.8429 28.7372C20.1677 28.4886 20.4146 28.1456 20.5836 27.7081C20.7527 27.2673 20.8372 26.7585 20.8372 26.1818C20.8372 25.6117 20.7543 25.1129 20.5886 24.6854C20.4229 24.2545 20.1776 23.9197 19.8528 23.6811C19.528 23.4392 19.127 23.3182 18.6497 23.3182C18.1525 23.3182 17.7382 23.4458 17.4068 23.701C17.0787 23.9529 16.8317 24.2959 16.666 24.7301C16.5036 25.161 16.4224 25.6449 16.4224 26.1818C16.4224 26.7254 16.5053 27.2192 16.671 27.6634C16.84 28.1042 17.0886 28.4555 17.4167 28.7173C17.7482 28.9759 18.1592 29.1051 18.6497 29.1051ZM28.9508 26.8778V22.3636H30.1241V30H28.9508V28.7074H28.8713C28.6923 29.0952 28.4139 29.425 28.036 29.6967C27.6582 29.9652 27.1809 30.0994 26.6042 30.0994C26.127 30.0994 25.7027 29.995 25.3315 29.7862C24.9603 29.5741 24.6686 29.2559 24.4565 28.8317C24.2444 28.4041 24.1383 27.8655 24.1383 27.2159V22.3636H25.3116V27.1364C25.3116 27.6932 25.4674 28.1373 25.7789 28.4688C26.0938 28.8002 26.4949 28.9659 26.9821 28.9659C27.2737 28.9659 27.5704 28.8913 27.872 28.7422C28.1769 28.593 28.4321 28.3643 28.6376 28.0561C28.8464 27.7479 28.9508 27.3551 28.9508 26.8778ZM35.4748 30.1591C34.739 30.1591 34.1043 29.9967 33.5707 29.6719C33.0404 29.3438 32.631 28.8864 32.3427 28.2997C32.0576 27.7098 31.9151 27.0237 31.9151 26.2415C31.9151 25.4593 32.0576 24.7699 32.3427 24.1733C32.631 23.5734 33.0321 23.1061 33.5458 22.7713C34.0629 22.4332 34.6661 22.2642 35.3555 22.2642C35.7532 22.2642 36.146 22.3305 36.5337 22.4631C36.9215 22.5956 37.2745 22.8111 37.5927 23.1094C37.9109 23.4044 38.1644 23.7955 38.3533 24.2827C38.5423 24.7699 38.6367 25.3698 38.6367 26.0824V26.5795H32.7504V25.5653H37.4435C37.4435 25.1345 37.3574 24.75 37.185 24.4119C37.016 24.0739 36.774 23.8071 36.4592 23.6115C36.1476 23.416 35.7797 23.3182 35.3555 23.3182C34.8881 23.3182 34.4838 23.4342 34.1424 23.6662C33.8043 23.8949 33.5442 24.1932 33.3619 24.5611C33.1796 24.929 33.0884 25.3234 33.0884 25.7443V26.4205C33.0884 26.9972 33.1879 27.486 33.3867 27.8871C33.5889 28.2848 33.869 28.5881 34.2269 28.7969C34.5849 29.0024 35.0008 29.1051 35.4748 29.1051C35.783 29.1051 36.0614 29.062 36.31 28.9759C36.5619 28.8864 36.779 28.7538 36.9613 28.5781C37.1436 28.3991 37.2844 28.1771 37.3839 27.9119L38.5174 28.2301C38.3981 28.6146 38.1976 28.9527 37.9158 29.2443C37.6341 29.5327 37.2861 29.758 36.8718 29.9205C36.4575 30.0795 35.9918 30.1591 35.4748 30.1591ZM43.7425 22.3636V23.358H39.7852V22.3636H43.7425ZM40.9386 20.5341H42.1119V27.8125C42.1119 28.1439 42.1599 28.3925 42.256 28.5582C42.3555 28.7206 42.4814 28.83 42.6339 28.8864C42.7897 28.9394 42.9537 28.9659 43.1261 28.9659C43.2553 28.9659 43.3614 28.9593 43.4442 28.946C43.5271 28.9295 43.5934 28.9162 43.6431 28.9062L43.8817 29.9602C43.8022 29.9901 43.6912 30.0199 43.5487 30.0497C43.4061 30.0829 43.2255 30.0994 43.0067 30.0994C42.6753 30.0994 42.3505 30.0282 42.0323 29.8857C41.7174 29.7431 41.4556 29.526 41.2468 29.2344C41.0413 28.9427 40.9386 28.5748 40.9386 28.1307V20.5341ZM52.8455 22.3636V23.358H48.729V22.3636H52.8455ZM49.962 30V21.3097C49.962 20.8722 50.0647 20.5076 50.2702 20.2159C50.4757 19.9242 50.7425 19.7055 51.0707 19.5597C51.3988 19.4138 51.7451 19.3409 52.1097 19.3409C52.3981 19.3409 52.6334 19.3641 52.8157 19.4105C52.998 19.4569 53.1339 19.5 53.2234 19.5398L52.8853 20.554C52.8256 20.5341 52.7428 20.5092 52.6367 20.4794C52.534 20.4496 52.3981 20.4347 52.229 20.4347C51.8413 20.4347 51.5612 20.5324 51.3888 20.728C51.2198 20.9235 51.1353 21.2102 51.1353 21.5881V30H49.962ZM54.4899 30V22.3636H55.6632V30H54.4899ZM55.0865 21.0909C54.8578 21.0909 54.6606 21.013 54.4949 20.8572C54.3324 20.7015 54.2512 20.5142 54.2512 20.2955C54.2512 20.0767 54.3324 19.8894 54.4949 19.7337C54.6606 19.5779 54.8578 19.5 55.0865 19.5C55.3152 19.5 55.5107 19.5779 55.6731 19.7337C55.8388 19.8894 55.9217 20.0767 55.9217 20.2955C55.9217 20.5142 55.8388 20.7015 55.6731 20.8572C55.5107 21.013 55.3152 21.0909 55.0865 21.0909ZM58.9854 25.4062V30H57.8121V22.3636H58.9457V23.5568H59.0451C59.2241 23.169 59.4959 22.8575 59.8604 22.6222C60.225 22.3835 60.6957 22.2642 61.2724 22.2642C61.7894 22.2642 62.2418 22.3703 62.6296 22.5824C63.0174 22.7912 63.319 23.1094 63.5344 23.5369C63.7499 23.9612 63.8576 24.4981 63.8576 25.1477V30H62.6843V25.2273C62.6843 24.6274 62.5285 24.16 62.217 23.8253C61.9054 23.4872 61.4779 23.3182 60.9343 23.3182C60.5598 23.3182 60.225 23.3994 59.93 23.5618C59.6384 23.7242 59.408 23.9612 59.239 24.2727C59.07 24.5843 58.9854 24.9621 58.9854 25.4062ZM66.0016 30V22.3636H67.1749V30H66.0016ZM66.5982 21.0909C66.3695 21.0909 66.1723 21.013 66.0066 20.8572C65.8442 20.7015 65.763 20.5142 65.763 20.2955C65.763 20.0767 65.8442 19.8894 66.0066 19.7337C66.1723 19.5779 66.3695 19.5 66.5982 19.5C66.8269 19.5 67.0224 19.5779 67.1848 19.7337C67.3506 19.8894 67.4334 20.0767 67.4334 20.2955C67.4334 20.5142 67.3506 20.7015 67.1848 20.8572C67.0224 21.013 66.8269 21.0909 66.5982 21.0909ZM69.483 30V19.8182H70.6562V23.5767H70.7557C70.8419 23.4441 70.9612 23.2751 71.1136 23.0696C71.2694 22.8608 71.4915 22.6752 71.7798 22.5128C72.0715 22.3471 72.4659 22.2642 72.9631 22.2642C73.6061 22.2642 74.1728 22.425 74.6634 22.7464C75.1539 23.0679 75.5367 23.5237 75.8118 24.1136C76.0869 24.7036 76.2244 25.3996 76.2244 26.2017C76.2244 27.0104 76.0869 27.7114 75.8118 28.3047C75.5367 28.8946 75.1555 29.352 74.6683 29.6768C74.1811 29.9983 73.6193 30.1591 72.983 30.1591C72.4924 30.1591 72.0997 30.0779 71.8047 29.9155C71.5097 29.7498 71.2827 29.5625 71.1236 29.3537C70.9645 29.1416 70.8419 28.9659 70.7557 28.8267H70.6165V30H69.483ZM70.6364 26.1818C70.6364 26.7585 70.7209 27.2673 70.8899 27.7081C71.0589 28.1456 71.3059 28.4886 71.6307 28.7372C71.9555 28.9825 72.3532 29.1051 72.8239 29.1051C73.3144 29.1051 73.7237 28.9759 74.0518 28.7173C74.3833 28.4555 74.6319 28.1042 74.7976 27.6634C74.9666 27.2192 75.0511 26.7254 75.0511 26.1818C75.0511 25.6449 74.9683 25.161 74.8026 24.7301C74.6402 24.2959 74.3932 23.9529 74.0618 23.701C73.7337 23.4458 73.321 23.3182 72.8239 23.3182C72.3466 23.3182 71.9455 23.4392 71.6207 23.6811C71.2959 23.9197 71.0507 24.2545 70.8849 24.6854C70.7192 25.1129 70.6364 25.6117 70.6364 26.1818ZM82.8317 26.8778V22.3636H84.005V30H82.8317V28.7074H82.7521C82.5732 29.0952 82.2947 29.425 81.9169 29.6967C81.5391 29.9652 81.0618 30.0994 80.4851 30.0994C80.0078 30.0994 79.5836 29.995 79.2124 29.7862C78.8411 29.5741 78.5495 29.2559 78.3374 28.8317C78.1252 28.4041 78.0192 27.8655 78.0192 27.2159V22.3636H79.1925V27.1364C79.1925 27.6932 79.3482 28.1373 79.6598 28.4688C79.9747 28.8002 80.3757 28.9659 80.8629 28.9659C81.1546 28.9659 81.4512 28.8913 81.7528 28.7422C82.0578 28.593 82.313 28.3643 82.5185 28.0561C82.7273 27.7479 82.8317 27.3551 82.8317 26.8778ZM91.563 24.0739L90.5091 24.3722C90.4428 24.1965 90.345 24.0258 90.2157 23.8601C90.0898 23.6911 89.9174 23.5518 89.6987 23.4425C89.4799 23.3331 89.1999 23.2784 88.8585 23.2784C88.3912 23.2784 88.0017 23.3861 87.6902 23.6016C87.3819 23.8137 87.2278 24.0838 87.2278 24.4119C87.2278 24.7036 87.3339 24.9339 87.546 25.103C87.7581 25.272 88.0895 25.4129 88.5403 25.5256L89.6738 25.804C90.3566 25.9697 90.8654 26.2232 91.2001 26.5646C91.5349 26.9027 91.7022 27.3385 91.7022 27.8722C91.7022 28.3097 91.5763 28.7008 91.3244 29.0455C91.0758 29.3902 90.7278 29.6619 90.2804 29.8608C89.8329 30.0597 89.3126 30.1591 88.7193 30.1591C87.9404 30.1591 87.2958 29.9901 86.7853 29.652C86.2749 29.3139 85.9518 28.8201 85.8159 28.1705L86.9295 27.892C87.0356 28.303 87.2361 28.6113 87.5311 28.8168C87.8294 29.0223 88.2188 29.125 88.6994 29.125C89.2463 29.125 89.6805 29.009 90.002 28.777C90.3268 28.5417 90.4892 28.2599 90.4892 27.9318C90.4892 27.6667 90.3964 27.4446 90.2108 27.2656C90.0252 27.0833 89.7401 26.9474 89.3556 26.858L88.0829 26.5597C87.3836 26.3939 86.8699 26.1371 86.5417 25.7891C86.2169 25.4377 86.0545 24.9986 86.0545 24.4716C86.0545 24.0407 86.1755 23.6596 86.4174 23.3281C86.6627 22.9967 86.9958 22.7365 87.4167 22.5476C87.841 22.3587 88.3216 22.2642 88.8585 22.2642C89.6142 22.2642 90.2074 22.4299 90.6383 22.7614C91.0725 23.0928 91.3807 23.5303 91.563 24.0739ZM97.4059 30V22.3636H98.5394V23.517H98.619C98.7582 23.1392 99.0101 22.8326 99.3746 22.5973C99.7392 22.362 100.15 22.2443 100.608 22.2443C100.694 22.2443 100.801 22.246 100.931 22.2493C101.06 22.2526 101.158 22.2576 101.224 22.2642V23.4574C101.184 23.4474 101.093 23.4325 100.951 23.4126C100.811 23.3894 100.664 23.3778 100.508 23.3778C100.137 23.3778 99.8055 23.4557 99.5138 23.6115C99.2255 23.764 98.9968 23.9761 98.8278 24.2479C98.6621 24.5163 98.5792 24.8229 98.5792 25.1676V30H97.4059ZM102.615 30V22.3636H103.788V30H102.615ZM103.211 21.0909C102.983 21.0909 102.786 21.013 102.62 20.8572C102.457 20.7015 102.376 20.5142 102.376 20.2955C102.376 20.0767 102.457 19.8894 102.62 19.7337C102.786 19.5779 102.983 19.5 103.211 19.5C103.44 19.5 103.636 19.5779 103.798 19.7337C103.964 19.8894 104.047 20.0767 104.047 20.2955C104.047 20.5142 103.964 20.7015 103.798 20.8572C103.636 21.013 103.44 21.0909 103.211 21.0909Z" fill="#6A6A6A"/>
</svg>
